<svg xmlns="http://www.w3.org/2000/svg" xmlns:xlink="http://www.w3.org/1999/xlink" id="Layer_1" x="0" y="0" version="1.1" viewBox="0 0 409.408 501.079" style="enable-background:new 0 0 409.408 501.079" xml:space="preserve"><g><g><linearGradient id="SVGID_1_" x1="152.265" x2="190.967" y1="234.595" y2="178.398" gradientUnits="userSpaceOnUse"><stop offset=".151" style="stop-color:#e26268"/><stop offset=".262" style="stop-color:#da5e64"/><stop offset=".422" style="stop-color:#cc575d"/><stop offset=".61" style="stop-color:#b64a51"/><stop offset=".818" style="stop-color:#973940"/><stop offset="1" style="stop-color:#79272f"/></linearGradient><path style="fill:url(#SVGID_1_)" d="M165.693,156.746c-16.307,18.829-27.458,49.133-29.223,83.884h52.468 c1.753-24.756,9.896-41.827,15.767-49.054C191.258,170.802,173.659,160.709,165.693,156.746z"/></g><linearGradient id="SVGID_00000028324901554559800130000010422282344040183173_" x1="251.061" x2="189.847" y1="179.19" y2="211.727" gradientUnits="userSpaceOnUse"><stop offset="0" style="stop-color:#f9a57b"/><stop offset="1" style="stop-color:#ee2957"/></linearGradient><path style="fill:url(#SVGID_00000028324901554559800130000010422282344040183173_)" d="M220.47,240.63h52.468 c-2.964-58.339-32.371-104.161-68.234-104.161c-14.5,0-27.943,7.496-39.011,20.276c7.939,3.949,25.555,14.041,39.011,34.831 C217.908,211.977,220.047,231.769,220.47,240.63z"/><g><linearGradient id="SVGID_00000103257326296133819300000007201359618600103864_" x1="152.265" x2="190.967" y1="355.923" y2="299.726" gradientTransform="matrix(1 0 0 -1 0 621.943)" gradientUnits="userSpaceOnUse"><stop offset=".151" style="stop-color:#622d33"/><stop offset=".388" style="stop-color:#5e2a30"/><stop offset=".725" style="stop-color:#542228"/><stop offset="1" style="stop-color:#491820"/></linearGradient><path style="fill:url(#SVGID_00000103257326296133819300000007201359618600103864_)" d="M165.693,343.87 c-16.307-18.829-27.458-49.133-29.223-83.884h52.468c1.753,24.756,9.896,41.827,15.767,49.054 C191.258,329.813,173.659,339.906,165.693,343.87z"/></g><linearGradient id="SVGID_00000013172357336772725590000002996060448191177661_" x1="259.775" x2="198.561" y1="295.887" y2="328.424" gradientTransform="matrix(1 0 0 -1 0 621.943)" gradientUnits="userSpaceOnUse"><stop offset="0" style="stop-color:#6e483c"/><stop offset="1" style="stop-color:#6a1d2f"/></linearGradient><path style="fill:url(#SVGID_00000013172357336772725590000002996060448191177661_)" d="M220.47,259.985h52.468 c-2.964,58.339-32.371,104.161-68.234,104.161c-14.5,0-27.943-7.496-39.011-20.276c7.939-3.949,25.555-14.041,39.011-34.831 C217.909,288.638,220.047,268.846,220.47,259.985z"/></g></svg>