<svg xmlns="http://www.w3.org/2000/svg" width="246" height="237" fill="none" viewBox="0 0 246 237"><path fill="#fff" d="M203.032 72.2903L162.968 95.4193L203.032 118.645L243 95.4193L203.032 72.2903Z"/><path fill="#fff" d="M42.9677 72.2903L3 95.4193L42.9677 118.645L83.0323 95.4193L42.9677 72.2903Z"/><path fill="#1792FF" d="M83.0323 187.742V233.71L123 210.581V164.613L83.0323 187.742Z"/><path fill="#A4D8FF" d="M83.0323 95.7096V141.677L42.9677 118.548V72.5806L83.0323 95.7096Z"/><path fill="#A4D8FF" d="M83.0323 141.677V187.548L42.9677 164.516V118.548L83.0323 141.677Z"/><path fill="#A4D8FF" d="M42.9677 118.548V164.516L3 141.387V95.4194L42.9677 118.548Z"/><path fill="#A4D8FF" d="M123 164.613V210.581L83.0323 187.548V141.581L123 164.613Z"/><path fill="#A4D8FF" d="M162.968 95.5162V141.484L123 118.355V72.3872L162.968 95.5162Z"/><path fill="#A4D8FF" d="M83.0323 49.2579V95.2257L42.9677 72.0966V26.1289L83.0323 49.2579Z"/><path fill="#A4D8FF" d="M162.968 187.548V233.516L123 210.484V164.516L162.968 187.548Z"/><path fill="#A4D8FF" d="M83.0323 187.548V233.516L42.9677 210.484V164.516L83.0323 187.548Z"/><path fill="#1792FF" d="M162.968 95.5162V141.484L203.032 118.355V72.3872L162.968 95.5162Z"/><path fill="#1792FF" d="M162.968 49.2579V95.2257L203.032 72.0966V26.1289L162.968 49.2579Z"/><path fill="#1792FF" d="M83.0323 95.5162V141.484L123 118.355V72.3872L83.0323 95.5162Z"/><path fill="#1792FF" d="M162.968 141.484V187.452L203.032 164.322V118.355L162.968 141.484Z"/><path fill="#1792FF" d="M203.032 118.548V164.516L243 141.387V95.4194L203.032 118.548Z"/><path fill="#1792FF" d="M123 164.516V210.484L162.968 187.452V141.484L123 164.516Z"/><path fill="#1792FF" d="M162.968 187.452V233.419L203.032 210.29V164.323L162.968 187.452Z"/><path fill="#fff" d="M83.0323 49.3547L42.9677 72.4838L83.0323 95.7096L123 72.4838L83.0323 49.3547Z"/><path fill="#fff" d="M123 26.1289L83.0323 49.3547L123 72.4837L162.968 49.3547L123 26.1289Z"/><path fill="#fff" d="M123 118.355L83.0323 141.484L123 164.613L162.968 141.484L123 118.355Z"/><path fill="#fff" d="M162.968 3L123 26.129L162.968 49.3548L203.032 26.129L162.968 3Z"/><path fill="#fff" d="M83.0323 3L42.9677 26.129L83.0323 49.3548L123 26.129L83.0323 3Z"/><path fill="#fff" d="M162.968 49.0645L123 72.2903L162.968 95.4193L203.032 72.2903L162.968 49.0645Z"/><path stroke="#001423" stroke-linejoin="round" stroke-miterlimit="10" stroke-width="5" d="M42.9677 26.129V72.2903L3 95.4194V141.387L42.9677 164.516V210.484L83.0323 233.516L123 210.484L162.968 233.516L203.032 210.484V164.516L243 141.387V95.4194L203.032 72.2903V26.129L162.968 3L123 26.129L83.0323 3L42.9677 26.129Z"/><path stroke="#fff" stroke-linecap="round" stroke-linejoin="round" stroke-miterlimit="10" stroke-width="5" d="M3 95.4194L42.9677 118.839"/><path stroke="#fff" stroke-linecap="round" stroke-linejoin="round" stroke-miterlimit="10" stroke-width="5" d="M83.0323 187.742V233.516"/><path stroke="#001423" stroke-linejoin="round" stroke-miterlimit="10" stroke-width="5" d="M83.0323 141.677V187.742"/><path stroke="#001423" stroke-linejoin="round" stroke-miterlimit="10" stroke-width="5" d="M42.9677 72.2903V164.516"/><path stroke="#001423" stroke-linejoin="round" stroke-miterlimit="10" stroke-width="5" d="M162.968 187.548V141.484"/><path stroke="#fff" stroke-linecap="round" stroke-linejoin="round" stroke-miterlimit="10" stroke-width="5" d="M162.968 233.516V187.548"/><path stroke="#fff" stroke-linecap="round" stroke-linejoin="round" stroke-miterlimit="10" stroke-width="5" d="M243 95.2258L203.032 118.645"/><path stroke="#fff" stroke-linecap="round" stroke-linejoin="round" stroke-miterlimit="10" stroke-width="5" d="M203.032 26.1289L162.968 49.5483"/><path stroke="#fff" stroke-linecap="round" stroke-linejoin="round" stroke-miterlimit="10" stroke-width="5" d="M42.9677 26.1289L83.0323 49.5483"/><path stroke="#001423" stroke-linejoin="round" stroke-miterlimit="10" stroke-width="5" d="M203.032 165.581V73.4517"/><path stroke="#001423" stroke-linejoin="round" stroke-miterlimit="10" stroke-width="5" d="M43.0645 118.548L83.0323 141.581"/><path stroke="#001423" stroke-linejoin="round" stroke-miterlimit="10" stroke-width="5" d="M42.9677 164.516L123 210.871"/><path stroke="#001423" stroke-linejoin="round" stroke-miterlimit="10" stroke-width="5" d="M202.258 164.516L122.323 210.871"/><path stroke="#001423" stroke-linejoin="round" stroke-miterlimit="10" stroke-width="5" d="M203.032 118.645L162.968 141.484"/><path stroke="#001423" stroke-linejoin="round" stroke-miterlimit="10" stroke-width="5" d="M164.323 49.6453L123 72.3872"/><path stroke="#001423" stroke-linejoin="round" stroke-miterlimit="10" stroke-width="5" d="M123 26.1289L205.645 73.8386"/><path stroke="#001423" stroke-linejoin="round" stroke-miterlimit="10" stroke-width="5" d="M162.29 141L123 117.968V72.3871L83.0323 49.2581"/><path stroke="#001423" stroke-linejoin="round" stroke-miterlimit="10" stroke-width="5" d="M123 26.0322L42.9677 72.2903"/><path stroke="#001423" stroke-linejoin="round" stroke-miterlimit="10" stroke-width="5" d="M123 117.774L82.7419 141.097"/><path stroke="#fff" stroke-linecap="round" stroke-linejoin="round" stroke-miterlimit="10" stroke-width="5" d="M42.9677 72.2903L83.0323 95.7096V141.581L123 164.613V210.484"/><path stroke="#fff" stroke-linecap="round" stroke-linejoin="round" stroke-miterlimit="10" stroke-width="5" d="M203.032 72.2903L162.968 95.7096V141.581L123 164.613"/><path stroke="#fff" stroke-linecap="round" stroke-linejoin="round" stroke-miterlimit="10" stroke-width="5" d="M83.0323 95.7097L123 72.4839L162.968 95.7097"/></svg>